<svg xmlns="http://www.w3.org/2000/svg" width="1200" height="630" viewBox="0 0 1200 630" role="img" aria-label="Вуаль Грядущего">
  <defs>
    <radialGradient id="glow" cx="72%" cy="38%" r="58%">
      <stop offset="0%" stop-color="#4d2e7f"/>
      <stop offset="48%" stop-color="#160d31"/>
      <stop offset="100%" stop-color="#07030f"/>
    </radialGradient>
    <linearGradient id="gold" x1="0" y1="0" x2="1" y2="1">
      <stop offset="0%" stop-color="#fff2bf"/>
      <stop offset="45%" stop-color="#f5c26b"/>
      <stop offset="100%" stop-color="#a86d28"/>
    </linearGradient>
  </defs>
  <rect width="1200" height="630" fill="url(#glow)"/>
  <g opacity="0.55">
    <circle cx="1010" cy="112" r="2" fill="#f5c26b"/>
    <circle cx="910" cy="214" r="1.6" fill="#e7dcbd"/>
    <circle cx="785" cy="90" r="1.4" fill="#e7dcbd"/>
    <circle cx="1060" cy="388" r="1.8" fill="#f5c26b"/>
    <circle cx="720" cy="488" r="1.5" fill="#e7dcbd"/>
    <circle cx="104" cy="120" r="1.4" fill="#e7dcbd"/>
    <circle cx="194" cy="452" r="1.8" fill="#f5c26b"/>
  </g>
  <path d="M950 126l34 108 118 46-118 46-34 108-34-108-118-46 118-46 34-108z" fill="url(#gold)" opacity="0.94"/>
  <circle cx="950" cy="280" r="45" fill="#0b0618" stroke="#f5c26b" stroke-width="11"/>
  <path d="M870 280c35-48 125-48 160 0-35 48-125 48-160 0z" fill="none" stroke="#fff0b9" stroke-width="10" stroke-linecap="round"/>
  <circle cx="950" cy="280" r="14" fill="#fff0b9"/>
  <text x="96" y="196" fill="#f5c26b" font-family="Georgia, 'Times New Roman', serif" font-size="34" letter-spacing="8">ОНЛАЙН ТАРО</text>
  <text x="92" y="294" fill="#fff0b9" font-family="Georgia, 'Times New Roman', serif" font-size="70" font-weight="700">Вуаль Грядущего</text>
  <text x="98" y="366" fill="#e0d4ba" font-family="Inter, Arial, sans-serif" font-size="29">AI-интерпретации раскладов, карта дня и глоссарий Таро</text>
  <rect x="98" y="424" width="346" height="54" rx="27" fill="rgba(245,194,107,0.14)" stroke="#f5c26b" stroke-width="2"/>
  <text x="126" y="460" fill="#f5c26b" font-family="Inter, Arial, sans-serif" font-size="24">alex-taro.ru</text>
</svg>
